<svg xmlns="http://www.w3.org/2000/svg" viewBox="0 0 512 512" role="img" aria-label="นิพนธ์ฟาร์ม">
  <rect width="512" height="512" rx="112" fill="#f4eedf"/>
  <path d="M96 124h320v264H96z" fill="#fbf7ee" stroke="#48684e" stroke-width="18"/>
  <path d="M256 124v264" stroke="#48684e" stroke-width="14"/>
  <path d="M132 164c44 8 78 24 124 58M380 164c-44 8-78 24-124 58" fill="none" stroke="#9a7c58" stroke-width="10" stroke-linecap="round"/>
  <path d="M170 286c0-42 34-76 76-76h20c42 0 76 34 76 76 0 42-34 76-76 76h-20c-42 0-76-34-76-76z" fill="#d8b7a0" stroke="#2f4d37" stroke-width="12"/>
  <circle cx="216" cy="276" r="8" fill="#2f3029"/><circle cx="296" cy="276" r="8" fill="#2f3029"/>
  <ellipse cx="256" cy="314" rx="34" ry="24" fill="#f0c8b0" stroke="#2f4d37" stroke-width="8"/>
  <circle cx="244" cy="314" r="5" fill="#2f3029"/><circle cx="268" cy="314" r="5" fill="#2f3029"/>
</svg>
