<svg xmlns="http://www.w3.org/2000/svg" width="1400" height="900" viewBox="0 0 1400 900">
<rect width="1400" height="900" fill="#f6f0e3"/><text x="65" y="70" font-size="38" fill="#2f5234" font-family="sans-serif">ตำรา นิพนธ์ฟาร์ม</text><text x="1080" y="70" font-size="24" fill="#2f5234" font-family="sans-serif">Mobile Reader Wireframe v0.1</text>
<g font-family="sans-serif" fill="#2d332e" stroke="#26312a" stroke-width="3"><rect x="55" y="125" width="285" height="600" rx="38" fill="#fffaf0"/><rect x="385" y="125" width="285" height="600" rx="38" fill="#fffaf0"/><rect x="715" y="125" width="285" height="600" rx="38" fill="#fffaf0"/><rect x="1045" y="125" width="285" height="600" rx="38" fill="#fffaf0"/></g>
<g font-family="sans-serif" fill="#24442d" text-anchor="middle"><text x="197" y="215" font-size="28">ตำรา นิพนธ์ฟาร์ม</text><text x="197" y="260" font-size="18">Cover</text><rect x="100" y="330" width="195" height="210" fill="#e1d8c3" stroke="#6b765d"/><text x="197" y="440" font-size="18">ภาพสุกร / โรงเรือน</text><rect x="100" y="580" width="195" height="56" rx="24" fill="#355f3d"/><text x="197" y="617" font-size="20" fill="#fff">เปิดตำรา</text>
<text x="527" y="195" font-size="27">สารบัญ</text><text x="527" y="240" font-size="17">1 พื้นฐานการเลี้ยงสุกร</text><text x="527" y="285" font-size="17">2 พันธุ์สุกรและพันธุกรรม</text><text x="527" y="330" font-size="17">3 เริ่มต้นฟาร์มอย่างเป็นระบบ</text><text x="527" y="375" font-size="17">4 โรงเรือนและสิ่งแวดล้อม</text><text x="527" y="420" font-size="17">5 อาหารและน้ำ</text><text x="527" y="465" font-size="17">6 สุขภาพและชีวอนามัย</text><text x="527" y="510" font-size="17">7 การสืบพันธุ์</text>
<text x="857" y="195" font-size="20">บทที่ 4</text><text x="857" y="235" font-size="27">การจัดโรงเรือนสุกร</text><line x1="760" y1="260" x2="955" y2="260" stroke="#4f6746"/><text x="760" y="310" text-anchor="start" font-size="17">4.1 หลักการออกแบบโรงเรือน</text><rect x="760" y="350" width="195" height="180" fill="#ddd3bf" stroke="#6c735f"/><text x="857" y="445" font-size="17">Pig Barn Figure</text><text x="760" y="580" text-anchor="start" font-size="16">เนื้อหาแบบอ่านต่อเนื่อง...</text>
<text x="1187" y="195" font-size="27">การตั้งค่า</text><text x="1090" y="260" text-anchor="start" font-size="18">ขนาดตัวอักษร</text><line x1="1090" y1="300" x2="1280" y2="300" stroke="#4f6746"/><text x="1090" y="355" text-anchor="start" font-size="18">ธีม: Light / Sepia / Dark</text><text x="1090" y="410" text-anchor="start" font-size="18">ระยะห่างบรรทัด</text><text x="1090" y="465" text-anchor="start" font-size="18">เสียงพลิกหน้า</text></g>
<g font-family="sans-serif" fill="#253d2b" text-anchor="middle"><text x="197" y="780" font-size="22">1 Cover</text><text x="527" y="780" font-size="22">2 Interactive TOC</text><text x="857" y="780" font-size="22">3 Reading Mode</text><text x="1187" y="780" font-size="22">4 Reader Settings</text></g>
</svg>
